<?xml version="1.0" encoding="UTF-8"?>
<svg width="40" height="40" viewBox="0 0 40 40" fill="none" xmlns="http://www.w3.org/2000/svg">
  <rect width="40" height="40" rx="8" fill="#3B82F6"/>
  <path d="M20 8C13.373 8 8 13.373 8 20C8 26.627 13.373 32 20 32C26.627 32 32 26.627 32 20C32 13.373 26.627 8 20 8ZM20 30C14.486 30 10 25.514 10 20C10 14.486 14.486 10 20 10C25.514 10 30 14.486 30 20C30 25.514 25.514 30 20 30Z" fill="white"/>
  <path d="M25 15H15C14.448 15 14 15.447 14 16V24C14 24.553 14.448 25 15 25H25C25.552 25 26 24.553 26 24V16C26 15.447 25.552 15 25 15ZM24 23H16V17H24V23Z" fill="white"/>
  <path d="M18 19H22V21H18V19Z" fill="white"/>
</svg> 